<svg width="20" height="20" viewBox="0 0 20 20" fill="none" xmlns="http://www.w3.org/2000/svg">
<path d="M16.25 7.91667H15.625V5.625C15.625 2.51667 13.1 0 10 0C6.89168 0 4.37501 2.51667 4.37501 5.625V7.91667H3.75001H3.74168C2.81668 7.91667 2.07501 8.65833 2.07501 9.58333V18.3333C2.07501 19.25 2.81668 19.9917 3.74168 19.9917H16.2417L16.2333 19.9908C17.15 19.9908 17.9 19.2408 17.9 18.3242V9.57417V9.57333C17.9 8.64833 17.15 7.90667 16.2333 7.90667C16.225 7.90667 16.225 7.90667 16.225 7.90667L16.25 7.91667ZM8.33335 12.9167L8.32501 12.9083C8.31668 11.9833 9.05835 11.2333 9.98335 11.2333C10.9 11.225 11.65 11.9667 11.65 12.8917C11.65 13.4833 11.3333 14.0417 10.8167 14.3417V16.2333C10.8167 16.6917 10.4417 17.0667 9.98335 17.0667C9.51668 17.0667 9.15001 16.6917 9.15001 16.2333V14.3333L9.14168 14.325C8.62501 14.025 8.30835 13.475 8.30835 12.8833L8.33335 12.9167ZM6.45835 5.625C6.45001 3.66667 8.04168 2.075 9.99168 2.075C11.9417 2.06667 13.5333 3.65833 13.5333 5.60833V7.48333C13.5333 7.70833 13.3417 7.9 13.1167 7.9H6.86668H6.85835C6.62501 7.89167 6.44168 7.70833 6.44168 7.475V7.47417L6.45835 5.625Z" fill="black"/>
</svg>
