<svg width="20" height="20" viewBox="0 0 20 20" fill="none" xmlns="http://www.w3.org/2000/svg">
<g clip-path="url(#clip0)">
<path d="M15.4166 9.16667V9.15834C15.4166 6.16667 12.9833 3.74167 9.99998 3.74167C7.00831 3.74167 4.58331 6.16667 4.58331 9.15834C4.58331 10.6333 5.18331 12.0417 6.24998 13.0667V15.4083C6.24998 16.0917 6.80831 16.65 7.49998 16.65C8.18331 16.6417 8.74165 16.0833 8.74165 15.3917C8.74165 16.075 9.29998 16.6333 9.99165 16.6333C10.675 16.625 11.2333 16.0667 11.2333 15.375V15.3667C11.225 16.05 11.7916 16.6167 12.475 16.6167C13.1583 16.6167 13.725 16.05 13.725 15.3667C13.725 15.3583 13.725 15.3583 13.725 15.3583V13.0083H13.7166C14.775 11.9833 15.3833 10.575 15.375 9.1L15.4166 9.16667ZM7.59998 10.4167L7.59165 10.4158C6.89998 10.4075 6.34165 9.84917 6.34165 9.16584C6.34165 8.47417 6.89998 7.91584 7.59165 7.91584C8.27498 7.91584 8.84165 8.47417 8.84165 9.16584V9.1575C8.84165 9.84084 8.27498 10.4075 7.59165 10.4075L7.59998 10.4167ZM12.6 10.4167L12.5916 10.4158C11.9 10.4075 11.3416 9.84917 11.3416 9.16584C11.3416 8.47417 11.9 7.91584 12.5916 7.91584C13.275 7.91584 13.8416 8.47417 13.8416 9.16584C13.8416 9.84917 13.275 10.4158 12.5916 10.4158C12.5833 10.4158 12.5833 10.4075 12.5833 10.4075L12.6 10.4167Z" fill="black"/>
<path d="M2.33333 4.09167L3.85583 5.61417C3.93916 5.6975 4.06416 5.73917 4.18916 5.73084V5.7225C4.30583 5.70584 4.42249 5.63917 4.48916 5.53084V5.5225C4.77249 5.0725 5.10583 4.6725 5.48916 4.30584V4.2975C5.56416 4.21417 5.61416 4.10584 5.61416 3.9975V3.98917C5.61416 3.8725 5.56416 3.76417 5.48916 3.68917L4.07249 2.2725V2.26417C4.54749 1.61417 4.42249 0.697503 3.77249 0.214169C3.33083 -0.119164 2.75583 -0.169164 2.26416 0.0641692H2.25583C2.01416 0.172503 1.83916 0.397503 1.79749 0.655836L1.67249 1.2975V1.28917C1.63916 1.45584 1.50583 1.58917 1.33916 1.6225L0.689159 1.73917H0.680826C0.414159 1.78084 0.197493 1.95584 0.0808262 2.18917H0.0724928C-0.277507 2.91417 0.0224928 3.78084 0.755826 4.13084C1.23916 4.36417 1.82249 4.30584 2.25583 3.98084L2.33333 4.09167Z" fill="black"/>
<path d="M15.5 5.55L15.4917 5.54167C15.5583 5.64167 15.6667 5.70833 15.7917 5.725L15.7833 5.71667C15.9083 5.725 16.025 5.68333 16.1167 5.59167L17.6333 4.06667L17.625 4.05833C18.2667 4.53333 19.1833 4.4 19.6667 3.75833C19.9833 3.31667 20.0417 2.74167 19.8083 2.25C19.6917 2.00833 19.4667 1.84167 19.2083 1.79167L18.5583 1.66667L18.55 1.65833C18.375 1.625 18.2417 1.49167 18.2167 1.325L18.0917 0.675001C18.0417 0.408334 17.8667 0.191667 17.6333 0.0750007C16.9 -0.274999 16.0333 0.0250007 15.6833 0.750001C15.4417 1.23333 15.5 1.81667 15.825 2.25L14.4083 3.66667H14.4C14.3167 3.74167 14.275 3.85 14.275 3.96667L14.2667 3.95833C14.2667 4.06667 14.3083 4.175 14.3917 4.25C14.7667 4.60833 15.1083 5.01667 15.4 5.45833L15.5 5.55Z" fill="black"/>
<path d="M4.49998 14.4417C4.36665 14.2417 4.11665 14.1917 3.91665 14.3167C3.89165 14.325 3.86665 14.35 3.84165 14.3667L2.31665 15.8833C1.66665 15.4 0.749983 15.525 0.274983 16.175C-0.0583502 16.6083 -0.10835 17.1917 0.124983 17.675C0.233316 17.9083 0.458316 18.0833 0.71665 18.125L1.35832 18.2417C1.52498 18.2667 1.65832 18.4 1.69165 18.575L1.80832 19.2167L1.79998 19.2083C1.84165 19.4667 2.01665 19.6833 2.24998 19.8L2.24165 19.7917C2.96665 20.1333 3.83332 19.8333 4.18332 19.1083C4.41665 18.6167 4.35832 18.0333 4.03332 17.6L5.44998 16.1833V16.175C5.52498 16.0917 5.56665 15.9833 5.56665 15.875C5.55832 15.7583 5.51665 15.65 5.43332 15.575L5.42498 15.5667C5.04165 15.2 4.69998 14.8 4.40832 14.3583L4.49998 14.4417Z" fill="black"/>
<path d="M17.6667 15.9L16.1417 14.375C15.975 14.2083 15.7083 14.2083 15.55 14.375C15.525 14.3917 15.5083 14.4167 15.4917 14.4417V14.4333C15.2 14.8667 14.8667 15.275 14.4833 15.6417V15.6333C14.4 15.7083 14.35 15.8167 14.35 15.925H14.3417C14.3333 16.0333 14.3833 16.1417 14.4583 16.2167L15.875 17.6333V17.625C15.3917 18.2667 15.525 19.1833 16.1667 19.6667C16.6 19.9833 17.175 20.0417 17.6667 19.8083H17.6583C17.8917 19.6917 18.0667 19.4667 18.1083 19.2083L18.225 18.5583H18.2167C18.2417 18.3833 18.375 18.25 18.5417 18.2167L19.1833 18.0917V18.0908C19.4417 18.0408 19.6583 17.8658 19.775 17.6325V17.6242C20.1167 16.8908 19.8167 16.0242 19.0917 15.6742C18.6 15.4325 18.0167 15.4908 17.5833 15.8158L17.6667 15.9Z" fill="black"/>
</g>
<defs>
<clipPath id="clip0">
<rect width="20" height="20" fill="white"/>
</clipPath>
</defs>
</svg>
