<svg width="20" height="20" viewBox="0 0 20 20" fill="none" xmlns="http://www.w3.org/2000/svg">
<path d="M9.55833 19.6083L9.54999 19.6C9.79166 19.8417 10.1833 19.8417 10.425 19.6C10.425 19.5917 10.425 19.5917 10.425 19.5917L19.5917 10.425V10.4167C19.8333 10.1667 19.8333 9.775 19.5917 9.53333C19.5833 9.525 19.5833 9.525 19.5833 9.525L10.4167 0.358334L10.4083 0.350001C10.1583 0.100001 9.76666 0.100001 9.52499 0.341667C9.51666 0.341667 9.51666 0.341667 9.51666 0.341667L0.349993 9.50833V9.5C0.0999929 9.74167 0.0999929 10.1333 0.34166 10.375L9.55833 19.6083ZM7.70833 10H7.69999C7.69999 8.73333 8.72499 7.70833 9.98333 7.7H10.8167L10.8083 7.69917C10.9167 7.69917 11.0167 7.59917 11.0167 7.49083C11.0167 7.4825 11.0167 7.4825 11.0167 7.4825V6.64917H11.0083C11.0083 6.29917 11.2833 6.02417 11.6333 6.02417C11.7917 6.02417 11.95 6.0825 12.0667 6.19917L13.7333 7.86583C13.975 8.1075 13.975 8.49917 13.725 8.74917L12.0583 10.4158H12.05C11.925 10.5325 11.7667 10.5992 11.6083 10.5992H11.6C11.25 10.5908 10.975 10.3158 10.975 9.97417V9.14083C10.975 9.02417 10.875 8.9325 10.7667 8.9325H9.93333V8.93167C9.35833 8.93167 8.89166 9.39833 8.88333 9.965V13.2983C8.88333 13.64 8.59999 13.9233 8.25833 13.9233C7.90833 13.9233 7.63333 13.64 7.63333 13.2983L7.70833 10Z" fill="black"/>
</svg>
