<svg width="20" height="20" viewBox="0 0 20 20" fill="none" xmlns="http://www.w3.org/2000/svg">
<g clip-path="url(#clip0)">
<path d="M19.1667 13.75H16.25L16.2417 13.7492C14.625 13.7408 13.325 12.4408 13.325 10.8242V10.8233C13.325 10.3567 12.95 9.99 12.4917 9.99H9.99166L9.98332 9.98917C9.51666 9.98083 9.14999 9.61416 9.14999 9.1475C9.14999 8.68083 9.51666 8.31416 9.98332 8.31416H14.5667H14.5583C15.0083 8.28916 15.3667 7.93083 15.3917 7.48083C15.3917 7.01416 15.0167 6.6475 14.5583 6.6475H13.3083V4.1475H13.6083V4.14666C13.775 4.13833 13.9417 4.19666 14.0833 4.29667L17.8167 6.905L17.8083 6.89666C17.9417 6.98833 18.1083 7.04666 18.2833 7.04666H19.1167L19.1083 7.04583C19.5667 7.04583 19.9417 6.67083 19.9417 6.2125C19.9417 5.74583 19.5667 5.37917 19.1083 5.37083H18.5333L15.0083 2.89583C14.5833 2.59583 14.0833 2.44583 13.5667 2.44583H13.2583C13.2583 1.0625 12.1333 -0.0541687 10.7583 -0.0541687H2.42499H2.41666C1.03332 -0.0541687 -0.0833435 1.0625 -0.0833435 2.44583V17.4458C-0.0833435 18.8208 1.03332 19.9375 2.41666 19.9375H10.7417L10.7333 19.9367C12.1083 19.9367 13.2333 18.8117 13.2333 17.4367V14.295L13.225 14.2867C14.0417 14.9617 15.075 15.3367 16.1333 15.3367H19.05H19.0417C19.5 15.3367 19.875 14.9617 19.875 14.5033C19.875 14.0367 19.5 13.67 19.0417 13.6617L19.1667 13.75ZM11.25 16.25H2.08332H2.07499C1.84166 16.2417 1.65832 16.0583 1.65832 15.825V2.90833C1.64999 2.675 1.84166 2.48333 2.06666 2.48333H11.2333H11.225C11.45 2.475 11.6417 2.66666 11.6417 2.89166V6.64166H9.97499H9.96666C8.58332 6.64166 7.46666 7.75833 7.46666 9.14166C7.46666 10.5167 8.58332 11.6417 9.96666 11.6417H11.6333V15.8083C11.6333 16.0333 11.4417 16.225 11.2167 16.225C11.2083 16.225 11.2083 16.2242 11.2083 16.2242L11.25 16.25Z" fill="black"/>
<path d="M4.79166 5.83333H5.20833V7.80833C5.20833 8.26667 5.575 8.63333 6.04166 8.63333C6.5 8.625 6.86666 8.25833 6.86666 7.79167V5.80833H7.28333L7.275 5.8075C7.5 5.8075 7.69166 5.61583 7.69166 5.39083C7.69166 5.29917 7.65833 5.2075 7.60833 5.14083L6.35833 3.47417L6.35 3.46583C6.19166 3.27417 5.925 3.24917 5.74166 3.39917C5.71666 3.41583 5.7 3.4325 5.675 3.4575L4.425 5.12417V5.11583C4.28333 5.29917 4.31666 5.5575 4.5 5.69917C4.56666 5.74917 4.65833 5.7825 4.74166 5.7825L4.79166 5.83333Z" fill="black"/>
<path d="M7.29164 12.9167H6.87497V11.25C6.87497 10.7833 6.49997 10.4167 6.04164 10.4167C5.57497 10.4167 5.20831 10.7833 5.20831 11.25V12.9167H4.79164H4.7833C4.54997 12.9167 4.36664 13.1 4.36664 13.3333C4.36664 13.4167 4.39164 13.5083 4.44997 13.5833L5.69997 15.25C5.83331 15.4333 6.09164 15.4667 6.2833 15.325C6.3083 15.3 6.34164 15.2667 6.35831 15.2333L7.60831 13.5667H7.59997C7.7333 13.375 7.69997 13.1167 7.51664 12.9833C7.44164 12.925 7.34997 12.9 7.26664 12.9L7.29164 12.9167Z" fill="black"/>
</g>
<defs>
<clipPath id="clip0">
<rect width="20" height="20" fill="white"/>
</clipPath>
</defs>
</svg>
