<svg width="20" height="20" viewBox="0 0 20 20" fill="none" xmlns="http://www.w3.org/2000/svg">
<g clip-path="url(#clip0)">
<path d="M4.69999 9.8525L4.69165 9.84416C4.44165 9.51916 4.14999 9.24416 3.82499 9.0275L5.74165 5.76916V5.76083C6.39999 5.56916 6.79165 4.88583 6.60832 4.21916C6.41665 3.5525 5.73332 3.16083 5.06665 3.34416C4.39999 3.5275 4.00832 4.21083 4.19165 4.8775C4.19999 4.91916 4.21665 4.96083 4.23332 5.0025L3.08332 6.94166L2.39165 5V4.98333H2.38332C2.43332 4.83333 2.46665 4.68333 2.46665 4.525H2.45832C2.45832 3.83333 1.89999 3.26666 1.20832 3.26666C0.516655 3.25833 -0.0500122 3.81666 -0.0500122 4.50833C-0.0583455 5.06666 0.316655 5.55833 0.858321 5.71666L1.84165 8.5H1.83332C1.74165 8.50833 1.65832 8.525 1.58332 8.54166C0.549988 8.825 -0.0666789 9.80833 -0.0666789 11.175L-0.0750122 11.1667C-0.0750122 14.15 2.34999 16.575 5.33332 16.5833H7.84165H7.83332C7.94165 16.5833 8.04165 16.4833 8.04165 16.375C8.04165 16.3 7.99999 16.2333 7.94165 16.2L7.93332 16.1917C5.74999 14.7917 4.47499 12.3417 4.58332 9.75833L4.69999 9.8525Z" fill="black"/>
<path d="M18.4542 13.8417H18.4458C17.8625 14.8167 17.0708 15.65 16.1208 16.2833V16.275C16.0208 16.3333 15.9958 16.4667 16.0542 16.5583C16.0875 16.6167 16.1542 16.65 16.2292 16.65H19.5625V16.6492C19.7875 16.6408 19.9708 16.4575 19.9708 16.2242C19.9625 16.1992 19.9625 16.1742 19.9625 16.1492C19.7792 15.1908 19.2292 14.3492 18.4208 13.8075L18.4542 13.8417Z" fill="black"/>
<path d="M18.2291 10.1042H18.2208C18.2208 6.70416 15.4708 3.95416 12.0708 3.95416C8.67081 3.94583 5.92081 6.69582 5.92081 10.0958C5.91248 11.5792 6.45414 13.0125 7.42914 14.1292L7.42081 14.1208C7.49581 14.2042 7.62081 14.2125 7.71248 14.1375C7.77081 14.0792 7.79581 13.9875 7.77081 13.9042C7.52914 13.2125 7.40414 12.4958 7.40414 11.7708L7.39581 11.7625C7.36248 10.4708 7.79581 9.22082 8.61248 8.22916H8.60414C9.55414 7.15416 10.9375 6.56249 12.3708 6.62083L12.3625 6.61999C14.2041 6.61999 15.6958 8.11166 15.6958 9.95332C15.6875 9.96999 15.6875 9.99499 15.6875 10.0117C15.7541 11.47 14.6208 12.72 13.1541 12.7867C13.0708 12.7867 12.9875 12.7867 12.9041 12.7783C11.8875 12.77 11.0625 11.9533 11.0625 10.9367C11.0541 10.5867 11.3375 10.3033 11.6791 10.3033C12.0208 10.295 12.3041 10.5783 12.3041 10.92H12.3033C12.295 11.245 12.5616 11.5033 12.8866 11.5033L12.8783 11.495C13.6533 11.5533 14.3366 10.97 14.4033 10.195C14.4033 10.1117 14.4033 10.0367 14.4033 9.96166V9.95332C14.445 8.80332 13.545 7.83666 12.4033 7.79499C12.37 7.78666 12.345 7.78666 12.3116 7.78666C11.2366 7.72832 10.2033 8.16166 9.48664 8.94499H9.47831C8.85331 9.71166 8.52831 10.67 8.56164 11.6533H8.55331C8.47831 13.5783 9.62831 15.345 11.42 16.07C11.5866 16.0783 11.7616 16.095 11.9366 16.095C15.3283 16.095 18.0783 13.3367 18.0783 9.94499L18.2291 10.1042Z" fill="black"/>
</g>
<defs>
<clipPath id="clip0">
<rect width="20" height="20" fill="white"/>
</clipPath>
</defs>
</svg>
