<?xml version="1.0" encoding="utf-8"?>
<!-- Generator: Adobe Illustrator 25.4.1, SVG Export Plug-In . SVG Version: 6.00 Build 0)  -->
<svg version="1.1" id="Layer_1" xmlns="http://www.w3.org/2000/svg" xmlns:xlink="http://www.w3.org/1999/xlink" x="0px" y="0px"
	 viewBox="0 0 20 20" style="enable-background:new 0 0 20 20;" xml:space="preserve">
<path d="M11.6,17c0-0.3,0.1-0.6,0.1-0.9H3.6V3.6h9v11.1c0.5-0.5,1.1-0.9,1.8-1.1V1.8c0-1-0.8-1.8-1.8-1.8l-9,0c-1,0-1.8,0.8-1.8,1.8
	v16.1c0,1,0.8,1.8,1.8,1.8h9c0.1,0,0.2,0,0.3,0C12.1,19,11.6,18.1,11.6,17z"/>
<path d="M17.7,16.9c-0.3,0.1-0.6,0.2-1,0.2c0-0.1,0-0.3,0-0.4c0.3-0.3,0.6-0.6,0.8-1c0.1-0.2,0.1-0.4-0.1-0.5
	c-0.2-0.1-0.4-0.1-0.5,0.1c-0.1,0.2-0.3,0.5-0.5,0.6c-0.1-0.1-0.2-0.2-0.3-0.3c0-0.2,0-0.4-0.1-0.6c-0.1-0.3-0.1-0.6-0.2-0.8
	c-0.1-0.2-0.3-0.3-0.5-0.2c0,0,0,0,0,0c-0.1,0-0.1,0-0.1,0.1c-0.1,0.1-0.1,0.3-0.1,0.4c0,0.1,0.1,0.2,0.1,0.3c0,0.1,0.1,0.2,0.1,0.3
	c0,0.1,0,0.3,0.1,0.4c-0.1,0-0.3,0-0.4,0c-0.3-0.3-0.6-0.6-1-0.8c-0.2-0.1-0.4,0-0.5,0.1c-0.1,0.2,0,0.4,0.1,0.5
	c0.2,0.1,0.5,0.3,0.7,0.5c-0.1,0.1-0.2,0.2-0.3,0.3c-0.5,0-1,0.1-1.5,0.3c-0.2,0.1-0.3,0.3-0.2,0.5c0.1,0.2,0.3,0.3,0.5,0.2
	c0.3-0.1,0.6-0.2,1-0.2c0,0.1,0,0.1,0,0.2c0,0.1,0,0.2,0,0.2c-0.3,0.3-0.6,0.6-0.8,1c-0.1,0.2-0.1,0.4,0.1,0.5
	c0.1,0,0.1,0.1,0.2,0.1c0.1,0,0.2-0.1,0.3-0.2c0.1-0.2,0.3-0.5,0.5-0.6c0.1,0.1,0.2,0.2,0.3,0.3c0,0.2,0,0.4,0.1,0.6
	c0.1,0.3,0.1,0.6,0.2,0.8c0.1,0.1,0.2,0.2,0.3,0.2c0,0,0.1,0,0.1,0c0.1,0,0.1,0,0.1-0.1c0.1-0.1,0.1-0.3,0.1-0.4
	c0-0.1-0.1-0.2-0.1-0.3c0-0.1-0.1-0.2-0.1-0.3c0-0.1,0-0.2-0.1-0.4h0.2c0.1,0,0.2,0,0.2,0c0.3,0.3,0.6,0.6,1,0.8
	c0.2,0.1,0.4,0.1,0.5-0.1c0.1-0.2,0.1-0.4-0.1-0.5l0,0c-0.2-0.1-0.5-0.3-0.6-0.5c0.1-0.1,0.2-0.2,0.3-0.3h0.1c0.5,0,1-0.1,1.4-0.3
	c0.2-0.1,0.3-0.3,0.2-0.5C18.1,17,17.9,16.9,17.7,16.9L17.7,16.9z M16.1,17L16.1,17c0,0.3-0.1,0.5-0.3,0.6c0,0-0.1,0.1-0.1,0.1
	c-0.1,0.1-0.3,0.1-0.4,0.1h-0.1c-0.2,0-0.4-0.1-0.6-0.3c0,0-0.1-0.1-0.1-0.1c-0.1-0.1-0.1-0.3-0.1-0.4c0,0,0,0,0-0.1
	c0,0,0-0.1,0-0.1c0-0.2,0.1-0.3,0.3-0.4c0,0,0.1-0.1,0.1-0.1c0.1-0.1,0.3-0.1,0.4-0.1h0.1c0,0,0.1,0,0.1,0c0.2,0,0.3,0.1,0.4,0.3
	c0,0,0.1,0.1,0.1,0.1C16,16.7,16.1,16.9,16.1,17L16.1,17z"/>
</svg>
