<svg width="14" height="14" viewBox="0 0 14 14" fill="none" xmlns="http://www.w3.org/2000/svg">
<g clip-path="url(#clip0)">
<path fill-rule="evenodd" clip-rule="evenodd" d="M9.1918 7L4.44829 2.25649C4.10658 1.91478 4.10658 1.36076 4.44829 1.01905C4.79 0.677346 5.34402 0.677347 5.68573 1.01906L11.048 6.38128C11.048 6.38128 11.048 6.38128 11.048 6.38128C11.1334 6.46671 11.1975 6.56541 11.2402 6.67074C11.3209 6.86973 11.3253 7.0924 11.2536 7.29401C11.2209 7.38588 11.1724 7.47337 11.108 7.55226C11.0893 7.57518 11.0693 7.59736 11.048 7.61872L5.68573 12.9809C5.34402 13.3227 4.79 13.3227 4.44829 12.9809C4.10658 12.6392 4.10658 12.0852 4.44829 11.7435L9.1918 7Z" fill="#C4C4C7"/>
</g>
<defs>
<clipPath id="clip0">
<rect width="14" height="14" fill="white"/>
</clipPath>
</defs>
</svg>
