<svg width="20" height="20" viewBox="0 0 20 20" fill="none" xmlns="http://www.w3.org/2000/svg">
<path d="M1.76876 15.473C1.76876 17.1577 3.13693 18.5258 4.83183 18.5258H13L12.9898 18.5248C14.6745 18.5248 16.0529 17.1464 16.0529 15.4617V10.3158H16.0427C16.0427 10.0401 15.9304 9.77463 15.7364 9.58063C15.3382 9.17222 14.6847 9.17222 14.2865 9.57042C14.2763 9.57042 14.2763 9.57042 14.2763 9.57042L9.66128 14.1752H9.65107C8.65047 15.1656 7.03725 15.1656 6.03664 14.165C5.98559 14.114 5.93454 14.0629 5.8937 14.0119C5.03604 12.9296 5.14835 11.3776 6.13875 10.4383L10.6384 5.94578V5.93557C11.0366 5.53737 11.0366 4.88392 10.6384 4.48572C10.6282 4.47551 10.6282 4.47551 10.6282 4.47551L10.618 4.4653C10.424 4.2713 10.1585 4.15899 9.89305 4.15899H4.73994H4.72973C3.03483 4.15899 1.66666 5.52716 1.66666 7.22207L1.76876 15.473Z" fill="black"/>
<path d="M15.2197 6.539V6.52879C15.3116 6.42669 15.475 6.42669 15.5771 6.52879L17.7417 8.68315C17.8336 8.77504 17.9663 8.8261 18.099 8.8261V8.82507C18.1603 8.81486 18.2318 8.80465 18.293 8.78423H18.2828C18.4666 8.70255 18.5891 8.51877 18.5891 8.30435V2.1782C18.5891 1.89231 18.3543 1.66769 18.0786 1.66769H11.9525V1.66667C11.6666 1.66667 11.4419 1.89129 11.4419 2.17718C11.4419 2.30991 11.493 2.43244 11.5849 2.53454L13.7393 4.6889C13.8311 4.78079 13.8311 4.94416 13.7393 5.04626C13.729 5.04626 13.729 5.04626 13.729 5.04626L7.12301 11.6319H7.1128C6.70439 12.0301 6.70439 12.6733 7.10259 13.0715C7.50079 13.4697 8.14404 13.4697 8.54224 13.0715L15.2197 6.539Z" fill="black"/>
</svg>
