<svg width="20" height="20" viewBox="0 0 20 20" fill="none" xmlns="http://www.w3.org/2000/svg">
<g clip-path="url(#clip0)">
<path d="M8.125 3.325C7.62772 3.325 7.15081 3.52254 6.79917 3.87418C6.44754 4.22581 6.25 4.70272 6.25 5.2C6.25 5.69728 6.44754 6.1742 6.79917 6.52583C7.15081 6.87746 7.62772 7.075 8.125 7.075C8.62228 7.075 9.09919 6.87746 9.45082 6.52583C9.80246 6.1742 10 5.69728 10 5.2C10 4.70272 9.80246 4.22581 9.45082 3.87418C9.09919 3.52254 8.62228 3.325 8.125 3.325V3.325Z" fill="black"/>
<path d="M14.0966 7.25833C13.9466 6.96667 13.6466 6.79167 13.33 6.79167H13.3216C12.9966 6.79167 12.705 6.98333 12.5716 7.275L11.2716 10.1333V10.125C11.2216 10.225 11.0966 10.275 10.9966 10.225C10.9633 10.2083 10.9383 10.1833 10.9133 10.1583L10.23 9.3C10.0633 9.09167 9.8133 8.975 9.54664 8.98333H9.5383C9.27164 8.99167 9.02997 9.11667 8.87997 9.33333L6.27997 13.0417H6.27164C6.12997 13.225 6.17997 13.4833 6.3633 13.6167C6.42997 13.6667 6.5133 13.6917 6.60497 13.6917H16.605V13.6908C16.7466 13.6825 16.88 13.6158 16.955 13.4908V13.4825C17.03 13.3575 17.03 13.1992 16.9716 13.0742L14.0966 7.25833Z" fill="black"/>
<path d="M18.3333 2.54735e-07H4.58333H4.57499C3.64999 2.54735e-07 2.90833 0.741667 2.90833 1.66667V15.4167C2.90833 16.3333 3.64999 17.075 4.57499 17.075H18.325L18.3167 17.0742C19.2333 17.0742 19.9833 16.3242 19.9833 15.4075V1.65C19.9833 0.725 19.2333 -0.0166664 18.3167 -0.0166664L18.3333 2.54735e-07ZM18.2083 15.2917V15.2833C18.125 15.3583 18.0167 15.4 17.9083 15.4H4.98333H4.97499C4.74166 15.3917 4.55833 15.2083 4.55833 14.975V2.05833C4.54999 1.825 4.74166 1.63333 4.96666 1.63333H17.8833H17.875C18.1 1.625 18.2917 1.81667 18.2917 2.04167V14.9583H18.2833C18.275 15.0667 18.2333 15.1667 18.1583 15.25L18.2083 15.2917Z" fill="black"/>
<path d="M16.25 18.3333H2.0833H2.07497C1.84164 18.325 1.6583 18.1417 1.6583 17.9083V3.74167C1.6583 3.275 1.2833 2.90833 0.824971 2.90833C0.358305 2.90833 -0.00836182 3.275 -0.00836182 3.74167V18.325C-0.00836182 19.2417 0.733305 19.9833 1.6583 19.9833H16.2416H16.2333C16.6916 19.9833 17.0666 19.6083 17.0666 19.15C17.0666 18.6833 16.6916 18.3167 16.2333 18.3083L16.25 18.3333Z" fill="black"/>
</g>
<defs>
<clipPath id="clip0">
<rect width="20" height="20" fill="white"/>
</clipPath>
</defs>
</svg>
