<svg width="20" height="20" viewBox="0 0 20 20" fill="none" xmlns="http://www.w3.org/2000/svg">
<path d="M5.98749 14.0511L5.97985 14.0435C5.57497 13.6386 5.21592 13.2108 4.88743 12.7448L0.991375 17.9395V17.9319C0.731638 18.268 0.800392 18.7416 1.13652 19.0014C1.26639 19.0931 1.42682 19.1542 1.59488 19.1542H10.3801H10.3725C10.7926 19.1465 11.1288 18.8104 11.1288 18.3826C11.1211 18.2222 11.0753 18.077 10.9913 17.9472L9.92175 16.3964C8.4168 15.9304 7.057 15.113 5.94166 14.0129L5.98749 14.0511Z" fill="black"/>
<path d="M7.81946 1.05584C7.51389 0.757903 7.03261 0.757903 6.73468 1.06348V1.05584C3.38865 4.41714 3.40393 9.8487 6.76524 13.1947C6.77288 13.2024 6.78051 13.21 6.78815 13.2176L6.78052 13.21C10.1571 16.5484 15.5963 16.5178 18.95 13.1489V13.1412C19.2403 12.8357 19.2403 12.3544 18.9423 12.0565L13.9302 7.0909L15.5268 5.54088L15.5191 5.53325C16.6574 6.068 18.0172 5.57908 18.5596 4.44082C18.7047 4.12761 18.7735 3.79148 18.7735 3.44771C18.7659 2.17958 17.7422 1.16355 16.4817 1.16355H16.4664V1.15591C15.1983 1.15591 14.1823 2.18722 14.1899 3.44771C14.1899 3.78384 14.2663 4.12761 14.4191 4.43318L12.8225 5.97633L7.81946 1.05584Z" fill="black"/>
</svg>
