<svg width="20" height="20" viewBox="0 0 20 20" fill="none" xmlns="http://www.w3.org/2000/svg">
<g clip-path="url(#clip0)">
<path d="M8.71499 15.3083L6.43416 17.5833V17.575C5.50916 18.45 4.06749 18.45 3.14249 17.575L2.39249 16.825L2.38415 16.8167C1.47582 15.9083 1.47582 14.4333 2.38415 13.525L7.21749 8.69167H7.20915C8.10915 7.78334 9.58416 7.78334 10.4942 8.68334L11.2358 9.425L11.2275 9.41667C11.5525 9.74167 12.0775 9.74167 12.4025 9.41667C12.7275 9.08334 12.7275 8.55834 12.4025 8.23334V8.2325L11.6525 7.4825L11.6442 7.47417C10.0775 5.91584 7.55249 5.91584 5.99415 7.47417L1.16082 12.3075V12.2992C-0.397512 13.8492 -0.397512 16.3825 1.15249 17.9325L1.89415 18.6742L1.88582 18.6658C3.43582 20.2158 5.96082 20.2242 7.51915 18.6658C7.51915 18.6575 7.51915 18.6575 7.51915 18.6575L9.79416 16.3742V16.3658C10.1192 16.0325 10.1192 15.5075 9.79416 15.1825C9.46082 14.8492 8.93582 14.8492 8.61082 15.1742C8.60249 15.1742 8.60249 15.1742 8.60249 15.1742L8.71499 15.3083Z" fill="black"/>
<path d="M18.7717 1.96667L18.0217 1.21667C16.455 -0.341665 13.9383 -0.341665 12.38 1.20834L9.95499 3.625H9.94665C9.62165 3.95 9.62999 4.48334 9.96332 4.8C10.28 5.10834 10.7967 5.10834 11.1133 4.79167L13.53 2.375H13.5217C14.4217 1.46667 15.8967 1.46667 16.805 2.36667L17.5467 3.10834L17.5383 3.1C18.4383 4 18.4383 5.475 17.5383 6.375C17.53 6.375 17.53 6.375 17.53 6.375L12.6967 11.2083V11.2C12.255 11.6333 11.6633 11.875 11.0467 11.875V11.8742C10.43 11.8742 9.83832 11.6242 9.40499 11.1908C9.08832 10.8492 8.55499 10.8325 8.22165 11.1492C7.87999 11.4575 7.86332 11.9908 8.17999 12.3242C8.18832 12.3325 8.19665 12.3492 8.21332 12.3575C8.95499 13.1075 9.97165 13.5242 11.03 13.5158L11.0217 13.515C12.08 13.515 13.0883 13.0983 13.8383 12.3483L18.6717 7.515H18.6633C20.2133 5.95667 20.2217 3.43167 18.6633 1.87334C18.655 1.865 18.655 1.865 18.655 1.865L18.7717 1.96667Z" fill="black"/>
</g>
<defs>
<clipPath id="clip0">
<rect width="20" height="20" fill="white"/>
</clipPath>
</defs>
</svg>
