<svg width="20" height="20" viewBox="0 0 20 20" fill="none" xmlns="http://www.w3.org/2000/svg">
<g clip-path="url(#clip0)">
<path d="M7.45834 0H18.2917C19.2122 0 19.9583 0.746192 19.9583 1.66667V12.5C19.9583 13.4205 19.2122 14.1667 18.2917 14.1667H7.45834C6.53787 14.1667 5.79168 13.4205 5.79168 12.5V1.66667C5.79168 0.746192 6.53787 0 7.45834 0Z" fill="black"/>
<path d="M2.04167 5.83333H3.70833H3.71667C4.18333 5.83333 4.55 6.2 4.55 6.66667C4.55 7.125 4.18333 7.5 3.71667 7.49167H2.05H2.05833C1.83333 7.48333 1.64167 7.675 1.64167 7.9V17.9C1.64167 18.125 1.83333 18.3167 2.05833 18.3167H12.0583H12.0667C12.3 18.3083 12.4833 18.125 12.4833 17.8917V16.225C12.4833 15.7583 12.8583 15.3917 13.3167 15.3917C13.7833 15.3917 14.15 15.7583 14.15 16.225V17.8917V17.8833C14.1583 19.0333 13.225 19.9667 12.075 19.9667H2.075L2.08333 19.9658C0.933332 19.9658 -2.58208e-06 19.0325 -2.58208e-06 17.8825C-2.58208e-06 17.8742 -2.58208e-06 17.8742 -2.58208e-06 17.8742V7.87417C-2.58208e-06 6.71583 0.933332 5.79083 2.08333 5.79083L2.04167 5.83333Z" fill="black"/>
</g>
<defs>
<clipPath id="clip0">
<rect width="20" height="20" fill="white"/>
</clipPath>
</defs>
</svg>
