<svg width="20" height="20" viewBox="0 0 20 20" fill="none" xmlns="http://www.w3.org/2000/svg">
<g clip-path="url(#clip0)">
<path d="M0.241652 12.6667L2.32499 14.75L2.31665 14.7417C2.46665 14.8917 2.68332 14.9833 2.89999 14.9833H8.31665H8.30832C8.53332 14.975 8.72499 15.1667 8.72499 15.3917V19.5583C8.72499 19.7833 8.90832 19.9667 9.14165 19.9667H10.8083H10.8C11.025 19.9667 11.2167 19.775 11.2167 19.55V15.3833C11.2083 15.15 11.4 14.9667 11.625 14.9583H16.625H16.6167C17.075 14.9583 17.45 14.5833 17.45 14.125V9.95833C17.45 9.49167 17.075 9.125 16.6167 9.125H11.6167H11.6083C11.375 9.11667 11.1917 8.93333 11.1917 8.7V8.69917V7.86583V7.8575C11.1917 7.62417 11.375 7.44083 11.6083 7.44083H17.025L17.0167 7.44C17.2333 7.44 17.4417 7.34834 17.6 7.19L19.6833 5.10667H19.675C20 4.77333 20 4.24833 19.675 3.92333L17.5917 1.84C17.4333 1.68167 17.2167 1.59 17 1.59H11.5833H11.575C11.3417 1.58167 11.1583 1.39833 11.1583 1.165C11.1583 0.473334 10.5917 -0.0849991 9.90832 -0.0849991C9.21665 -0.0849991 8.65832 0.473334 8.65832 1.165C8.65832 1.39 8.46665 1.58167 8.24165 1.58167C8.23332 1.58167 8.23332 1.58167 8.23332 1.58167H3.23332H3.22499C2.75832 1.58167 2.39165 1.94833 2.39165 2.415V6.58167C2.39165 7.04 2.75832 7.40667 3.22499 7.40667H8.22498H8.21665C8.44165 7.39833 8.63332 7.59 8.63332 7.815V8.64834C8.63332 8.87334 8.44165 9.065 8.21665 9.065H2.79999C2.57499 9.05667 2.36665 9.14834 2.20832 9.30667L0.124985 11.39H0.116652C-0.216681 11.715 -0.216681 12.24 0.108319 12.565L0.241652 12.6667Z" fill="black"/>
</g>
<defs>
<clipPath id="clip0">
<rect width="20" height="20" fill="white"/>
</clipPath>
</defs>
</svg>
