<svg viewBox="0 0 24 24" xmlns="http://www.w3.org/2000/svg"><path d="M16.8 0l-.01 0c-3.98 0-7.2 3.22-7.2 7.2v4.07 0c0 .13-.12.25-.25.25H1.43h-.01c-.8 0-1.44.64-1.44 1.44 0 .79.64 1.44 1.44 1.44h7.91 -.01c.13-.01.25.11.25.24v3.34 0c0 .13-.12.25-.25.25H8.13l-.01-.001c-.8-.01-1.45.64-1.45 1.43 -.01.38.15.75.42 1.02l2.87 2.87 -.01-.01c.56.56 1.47.56 2.03 0 0-.01 0-.01 0-.01l2.87-2.88 0-.01c.56-.57.56-1.48 0-2.04 -.28-.28-.64-.43-1.03-.43h-1.19 -.01c-.14-.01-.25-.12-.25-.26 0 0 0 0 0 0v-3.34l0 0c-.01-.14.11-.26.24-.26h4.07l-.01-.001c3.97 0 7.2-3.23 7.2-7.2 0-3.98-3.23-7.2-7.2-7.21Zm0 11.52h-4.07 -.01c-.14-.01-.25-.12-.25-.26 0 0 0 0 0 0V7.19l0-.01c0-2.39 1.93-4.32 4.32-4.32 2.38 0 4.31 1.93 4.31 4.32 -.01 2.38-1.94 4.31-4.33 4.31Z"/></svg>