<?xml version="1.0" encoding="utf-8"?>
<!-- Generator: Adobe Illustrator 25.4.1, SVG Export Plug-In . SVG Version: 6.00 Build 0)  -->
<svg version="1.1" id="Layer_1" xmlns="http://www.w3.org/2000/svg" xmlns:xlink="http://www.w3.org/1999/xlink" x="0px" y="0px"
	 viewBox="0 0 20 20" style="enable-background:new 0 0 20 20;" xml:space="preserve">
<g>
	<path d="M15,3.3c-1.8,0-3.7,0.4-5,1.4c-1.3-1-3.2-1.4-5-1.4C3.7,3.3,2.3,3.5,1.1,4C0.4,4.3,0,4.9,0,5.7v10.3c0,1.2,1.1,2.1,2.3,1.8
		c0.9-0.2,1.8-0.3,2.7-0.3c1.4,0,2.9,0.2,4.1,0.8c0.5,0.3,1.2,0.3,1.7,0c1.2-0.6,2.7-0.8,4.1-0.8c0.9,0,1.9,0.1,2.7,0.3
		c1.1,0.3,2.3-0.6,2.3-1.8V5.7c0-0.7-0.4-1.4-1.1-1.7C17.7,3.5,16.3,3.3,15,3.3z M18.2,14.8c0,0.6-0.5,1-1.1,0.9
		c-0.7-0.1-1.4-0.2-2.1-0.2c-1.5,0-3.8,0.6-5,1.4V6.4c1.2-0.8,3.5-1.4,5-1.4c0.8,0,1.7,0.1,2.5,0.3c0.4,0.1,0.7,0.5,0.7,0.9V14.8z"
		/>
	<path d="M11.8,9.2c-0.3,0-0.6-0.2-0.6-0.5C11,8.3,11.2,8,11.6,7.8c1.4-0.5,3.2-0.6,4.9-0.4c0.4,0,0.6,0.4,0.6,0.8
		c0,0.4-0.4,0.6-0.8,0.6c-1.5-0.2-3.1,0-4.3,0.4C11.9,9.2,11.9,9.2,11.8,9.2z"/>
	<path d="M11.8,11.6c-0.3,0-0.6-0.2-0.6-0.5c-0.1-0.4,0.1-0.7,0.4-0.9c1.4-0.5,3.2-0.6,4.9-0.4c0.4,0,0.6,0.4,0.6,0.8
		c0,0.4-0.4,0.6-0.8,0.6c-1.5-0.2-3.1,0-4.3,0.4C11.9,11.6,11.9,11.6,11.8,11.6z"/>
	<path d="M11.8,14c-0.3,0-0.6-0.2-0.6-0.5c-0.1-0.4,0.1-0.7,0.4-0.9c1.4-0.5,3.2-0.6,4.9-0.4c0.4,0,0.6,0.4,0.6,0.8
		c0,0.4-0.4,0.6-0.8,0.6c-1.5-0.2-3.1,0-4.3,0.4C11.9,14,11.9,14,11.8,14z"/>
</g>
</svg>
