<?xml version="1.0" encoding="utf-8"?>
<!-- Generator: Adobe Illustrator 25.4.1, SVG Export Plug-In . SVG Version: 6.00 Build 0)  -->
<svg version="1.1" id="Layer_1" xmlns="http://www.w3.org/2000/svg" xmlns:xlink="http://www.w3.org/1999/xlink" x="0px" y="0px"
	 viewBox="0 0 20 20" style="enable-background:new 0 0 20 20;" xml:space="preserve">
<style type="text/css">
	.st0{fill:none;}
</style>
<circle class="st0" cx="4" cy="13.8" r="2"/>
<circle class="st0" cx="4" cy="3.9" r="2"/>
<path d="M2,7.9h13.8c1.1,0,2-0.9,2-2V2c0-1.1-0.9-2-2-2H2C0.9,0,0,0.9,0,2v3.9C0,7,0.9,7.9,2,7.9z M4,2c1.1,0,2,0.9,2,2s-0.9,2-2,2
	S2,5,2,3.9S2.9,2,4,2z"/>
<path d="M16.7,12.8c0.3,0,0.7,0.1,1,0.1v-1.1c0-1.1-0.9-2-2-2H2c-1.1,0-2,0.9-2,2v3.9c0,1.1,0.9,2,2,2h11c-0.1-0.3-0.1-0.6-0.1-1
	C12.8,14.5,14.6,12.8,16.7,12.8z M4,15.7c-1.1,0-2-0.9-2-2s0.9-2,2-2s2,0.9,2,2S5,15.7,4,15.7z"/>
<path d="M19.5,16.6c-0.3,0.1-0.7,0.2-1.1,0.3c0-0.1,0-0.3,0-0.4c0.4-0.3,0.7-0.7,0.9-1.1c0.1-0.2,0.1-0.4-0.1-0.6
	c-0.2-0.1-0.4-0.1-0.6,0.1c-0.2,0.3-0.3,0.5-0.6,0.7c-0.1-0.1-0.2-0.2-0.3-0.3c0-0.2,0-0.5-0.1-0.7c-0.1-0.3-0.1-0.6-0.3-0.9
	c-0.1-0.2-0.3-0.3-0.5-0.2c0,0,0,0,0,0c-0.1,0-0.1,0.1-0.1,0.1c-0.1,0.1-0.1,0.3-0.1,0.4c0,0.1,0.1,0.2,0.1,0.3
	c0,0.1,0.1,0.3,0.1,0.4c0,0.1,0,0.3,0.1,0.4c-0.1,0-0.3,0-0.4,0c-0.3-0.4-0.7-0.7-1.1-0.9c-0.2-0.1-0.4,0-0.6,0.1
	c-0.1,0.2-0.1,0.4,0.1,0.5c0.3,0.2,0.5,0.3,0.7,0.5c-0.1,0.1-0.2,0.2-0.3,0.3c-0.6,0-1.1,0.1-1.6,0.3c-0.2,0.1-0.3,0.3-0.2,0.5
	c0.1,0.2,0.3,0.3,0.5,0.2c0.3-0.1,0.7-0.2,1.1-0.3c0,0.1,0,0.1,0,0.2c0,0.1,0,0.2,0,0.3c-0.4,0.3-0.7,0.7-0.9,1.1
	c-0.1,0.2-0.1,0.4,0.1,0.6c0.1,0,0.1,0.1,0.2,0.1c0.1,0,0.3-0.1,0.3-0.2c0.2-0.3,0.3-0.5,0.5-0.7c0.1,0.1,0.2,0.2,0.3,0.3
	c0,0.2,0,0.5,0.1,0.7c0.1,0.3,0.1,0.6,0.3,0.9c0.1,0.2,0.2,0.3,0.4,0.3c0,0,0.1,0,0.1,0c0.1,0,0.1-0.1,0.1-0.1
	c0.1-0.1,0.1-0.3,0.1-0.4c0-0.1-0.1-0.2-0.1-0.3c0-0.1-0.1-0.3-0.1-0.4c0-0.1-0.1-0.3-0.1-0.4h0.2c0.1,0,0.2,0,0.3,0
	c0.3,0.4,0.7,0.7,1.1,0.9c0.2,0.1,0.4,0.1,0.6-0.1c0.1-0.2,0.1-0.4-0.1-0.6l0,0c-0.3-0.2-0.5-0.3-0.7-0.6c0.1-0.1,0.2-0.2,0.3-0.3
	h0.1c0.5,0,1-0.1,1.5-0.3c0.2-0.1,0.3-0.3,0.2-0.5C19.9,16.7,19.7,16.6,19.5,16.6L19.5,16.6z M17.7,16.7L17.7,16.7
	c0,0.3-0.1,0.5-0.3,0.7c0,0-0.1,0.1-0.1,0.1c-0.1,0.1-0.3,0.1-0.5,0.1h-0.1c-0.2,0-0.5-0.1-0.6-0.3c0,0-0.1-0.1-0.1-0.1
	c-0.1-0.1-0.1-0.3-0.1-0.5c0,0,0,0,0-0.1c0,0,0-0.1,0-0.1c0-0.2,0.1-0.4,0.3-0.5c0,0,0.1-0.1,0.1-0.1c0.1-0.1,0.3-0.1,0.5-0.1h0.1
	c0,0,0.1,0,0.1,0c0.2,0,0.4,0.1,0.5,0.3c0,0,0.1,0.1,0.1,0.1C17.6,16.4,17.7,16.6,17.7,16.7L17.7,16.7z"/>
</svg>
