<?xml version="1.0" encoding="utf-8"?>
<!-- Generator: Adobe Illustrator 25.4.1, SVG Export Plug-In . SVG Version: 6.00 Build 0)  -->
<svg version="1.1" id="Layer_1" xmlns="http://www.w3.org/2000/svg" xmlns:xlink="http://www.w3.org/1999/xlink" x="0px" y="0px"
	 viewBox="0 0 20 20" style="enable-background:new 0 0 20 20;" xml:space="preserve">
<path d="M3.1,14.5c-0.6,0-1-0.5-1-1V3.1c0-0.6,0.5-1,1-1h10.3c0.6,0,1,0.5,1,1V13c0.6-0.4,1.3-0.6,2.1-0.6V2.1
	c0-1.1-0.9-2.1-2.1-2.1H2.1C0.9,0,0,0.9,0,2.1v12.4c0,1.1,0.9,2.1,2.1,2.1h10.3c0-0.8,0.2-1.5,0.6-2.1H3.1z"/>
<path d="M19.4,16.5c-0.4,0.1-0.7,0.2-1.1,0.3c0-0.1,0-0.3,0-0.4c0.4-0.3,0.7-0.7,1-1.1c0.1-0.2,0.1-0.5-0.1-0.6
	c-0.2-0.1-0.5-0.1-0.6,0.1c-0.2,0.3-0.4,0.5-0.6,0.7c-0.1-0.1-0.2-0.3-0.4-0.3c0-0.3,0-0.5-0.1-0.7c-0.1-0.3-0.2-0.7-0.3-1
	c-0.1-0.2-0.3-0.3-0.5-0.3c0,0,0,0,0,0c-0.1,0-0.1,0.1-0.2,0.1c-0.1,0.1-0.2,0.3-0.1,0.4c0,0.1,0.1,0.2,0.1,0.3
	c0,0.1,0.1,0.3,0.1,0.4c0,0.1,0.1,0.3,0.1,0.4c-0.1,0-0.3,0-0.4,0c-0.3-0.4-0.7-0.7-1.1-1c-0.2-0.1-0.5,0-0.6,0.2
	c-0.1,0.2-0.1,0.4,0.1,0.6c0.3,0.2,0.5,0.4,0.8,0.6c-0.1,0.1-0.3,0.2-0.4,0.4c-0.6,0-1.2,0.1-1.7,0.3c-0.2,0.1-0.3,0.3-0.3,0.5
	c0.1,0.2,0.3,0.3,0.5,0.3c0.4-0.1,0.7-0.2,1.1-0.3c0,0.1,0,0.1,0,0.2c0,0.1,0,0.2,0,0.3c-0.4,0.3-0.7,0.7-1,1.1
	c-0.1,0.2-0.1,0.5,0.1,0.6c0.1,0,0.1,0.1,0.2,0.1c0.1,0,0.3-0.1,0.4-0.2c0.2-0.3,0.4-0.5,0.6-0.7c0.1,0.1,0.2,0.3,0.4,0.4
	c0,0.3,0,0.5,0.1,0.7c0.1,0.3,0.2,0.7,0.3,1c0.1,0.2,0.2,0.3,0.4,0.3c0,0,0.1,0,0.1,0c0.1,0,0.1-0.1,0.2-0.1
	c0.1-0.1,0.2-0.3,0.1-0.4c0-0.1-0.1-0.2-0.1-0.3c0-0.1-0.1-0.3-0.1-0.4c0-0.1-0.1-0.3-0.1-0.4h0.2c0.1,0,0.2,0,0.3,0
	c0.3,0.4,0.7,0.7,1.1,1c0.2,0.1,0.5,0.1,0.6-0.1c0.1-0.2,0.1-0.5-0.1-0.6l0,0c-0.3-0.2-0.5-0.4-0.7-0.6c0.1-0.1,0.3-0.2,0.4-0.4h0.1
	c0.6,0,1.1-0.1,1.6-0.3c0.2-0.1,0.3-0.3,0.2-0.6C19.9,16.5,19.7,16.4,19.4,16.5L19.4,16.5z M17.5,16.6L17.5,16.6
	c0,0.3-0.1,0.6-0.3,0.7c0,0-0.1,0.1-0.1,0.1c-0.2,0.1-0.3,0.1-0.5,0.1h-0.1c-0.3,0-0.5-0.1-0.7-0.3c0,0-0.1-0.1-0.1-0.1
	c-0.1-0.2-0.1-0.3-0.1-0.5c0,0,0-0.1,0-0.1c0,0,0-0.1,0-0.1c0-0.2,0.2-0.4,0.3-0.5c0,0,0.1-0.1,0.1-0.1c0.2-0.1,0.3-0.1,0.5-0.1h0.1
	c0,0,0.1,0,0.1,0c0.2,0,0.4,0.2,0.5,0.3c0,0,0.1,0.1,0.1,0.1C17.5,16.2,17.5,16.4,17.5,16.6L17.5,16.6z"/>
</svg>
