<?xml version="1.0" encoding="utf-8"?>
<!-- Generator: Adobe Illustrator 25.4.1, SVG Export Plug-In . SVG Version: 6.00 Build 0)  -->
<svg version="1.1" id="Layer_1" xmlns="http://www.w3.org/2000/svg" xmlns:xlink="http://www.w3.org/1999/xlink" x="0px" y="0px"
	 viewBox="0 0 20 20" style="enable-background:new 0 0 20 20;" xml:space="preserve">
<path d="M16.9,10.8c0.7,0,1.3,0.2,1.8,0.5c-0.1-0.3-0.3-0.5-0.6-0.6c-0.5-0.2-1.1-0.9-2.5-0.9c-1.8,0-2,0.9-3.1,0.9
	c-1.1,0-1.3-0.9-3.1-0.9c-1.8,0-2,0.9-3.1,0.9S5,9.8,3.1,9.8c-1.4,0-2,0.7-2.5,0.9C0.2,10.8,0,11.1,0,11.6c0,0.6,0.6,1.1,1.2,0.9
	c1-0.3,1-0.8,1.9-0.8c1.2,0,1.3,0.9,3.1,0.9s2-0.9,3.1-0.9c1.1,0,1.3,0.9,3.1,0.9c0.5,0,0.9-0.1,1.3-0.2
	C14.4,11.4,15.6,10.8,16.9,10.8z"/>
<path d="M1.2,5c1-0.3,1-0.8,1.9-0.8c1.1,0,1.3,0.9,3.1,0.9c1.8,0,2-0.9,3.1-0.9c1.1,0,1.3,0.9,3.1,0.9c1.8,0,2-0.9,3.1-0.9
	c0.9,0,1,0.4,1.9,0.7c0.6,0.2,1.2-0.2,1.2-0.9c0-0.5-0.2-0.8-0.6-0.9c-0.6-0.2-1.1-0.9-2.5-0.9c-1.8,0-2,0.9-3.1,0.9
	c-1.1,0-1.3-0.9-3.1-0.9c-1.8,0-2,0.9-3.1,0.9c-1.1,0-1.3-0.9-3.1-0.9c-1.4,0-2,0.7-2.5,0.9C0.2,3.3,0,3.6,0,4.1
	C0,4.7,0.6,5.2,1.2,5z"/>
<path d="M1.2,8.7c1-0.3,1-0.8,1.9-0.8c1.1,0,1.3,0.9,3.1,0.9c1.8,0,2-0.9,3.1-0.9c1.1,0,1.3,0.9,3.1,0.9c1.8,0,2-0.9,3.1-0.9
	c0.9,0,1,0.4,1.9,0.7c0.6,0.2,1.2-0.2,1.2-0.9c0-0.5-0.2-0.8-0.6-0.9c-0.6-0.2-1.1-0.8-2.5-0.8c-1.8,0-2,0.9-3.1,0.9
	c-1.1,0-1.3-0.9-3.1-0.9C7.5,6.1,7.4,7,6.2,7C5.1,7,4.9,6.1,3.1,6.1c-1.4,0-2,0.7-2.5,0.9C0.2,7.1,0,7.4,0,7.9
	C0,8.5,0.6,8.9,1.2,8.7z"/>
<path d="M19.5,14.4c-0.3,0.1-0.7,0.2-1,0.2c0-0.1,0-0.3,0-0.4c0.3-0.3,0.6-0.6,0.9-1c0.1-0.2,0.1-0.4-0.1-0.5s-0.4-0.1-0.5,0.1
	c-0.2,0.2-0.3,0.5-0.5,0.7c-0.1-0.1-0.2-0.2-0.3-0.3c0-0.2,0-0.5-0.1-0.7c-0.1-0.3-0.1-0.6-0.2-0.9c-0.1-0.2-0.3-0.3-0.5-0.2
	c0,0,0,0,0,0c-0.1,0-0.1,0-0.1,0.1c-0.1,0.1-0.1,0.3-0.1,0.4c0,0.1,0.1,0.2,0.1,0.3c0,0.1,0.1,0.2,0.1,0.3c0,0.1,0,0.3,0.1,0.4
	c-0.1,0-0.3,0-0.4,0c-0.3-0.3-0.6-0.6-1-0.9c-0.2-0.1-0.4,0-0.5,0.1c-0.1,0.2-0.1,0.4,0.1,0.5c0.2,0.1,0.5,0.3,0.7,0.5
	c-0.1,0.1-0.2,0.2-0.3,0.3c-0.5,0-1.1,0.1-1.6,0.3c-0.2,0.1-0.3,0.3-0.2,0.5c0.1,0.2,0.3,0.3,0.5,0.2c0.3-0.1,0.7-0.2,1-0.2
	c0,0.1,0,0.1,0,0.2c0,0.1,0,0.2,0,0.2c-0.3,0.3-0.6,0.6-0.9,1c-0.1,0.2-0.1,0.4,0.1,0.5c0.1,0,0.1,0.1,0.2,0.1
	c0.1,0,0.3-0.1,0.3-0.2c0.1-0.2,0.3-0.5,0.5-0.7c0.1,0.1,0.2,0.2,0.3,0.3c0,0.2,0,0.5,0.1,0.7c0.1,0.3,0.1,0.6,0.2,0.9
	c0.1,0.1,0.2,0.2,0.4,0.2c0,0,0.1,0,0.1,0c0.1,0,0.1-0.1,0.1-0.1c0.1-0.1,0.1-0.3,0.1-0.4c0-0.1-0.1-0.2-0.1-0.3
	c0-0.1-0.1-0.2-0.1-0.3c0-0.1-0.1-0.3-0.1-0.4h0.2c0.1,0,0.2,0,0.2,0c0.3,0.3,0.6,0.6,1,0.9c0.2,0.1,0.4,0.1,0.5-0.1
	c0.1-0.2,0.1-0.4-0.1-0.5l0,0c-0.2-0.2-0.5-0.3-0.7-0.5c0.1-0.1,0.2-0.2,0.3-0.3h0.1c0.5,0,1-0.1,1.5-0.3c0.2-0.1,0.3-0.3,0.2-0.5
	C19.9,14.5,19.7,14.4,19.5,14.4L19.5,14.4z M17.8,14.5L17.8,14.5c0,0.3-0.1,0.5-0.3,0.7c0,0-0.1,0.1-0.1,0.1
	c-0.1,0.1-0.3,0.1-0.5,0.1h-0.1c-0.2,0-0.4-0.1-0.6-0.3c0,0-0.1-0.1-0.1-0.1c-0.1-0.1-0.1-0.3-0.1-0.5c0,0,0,0,0-0.1
	c0,0,0-0.1,0-0.1c0-0.2,0.1-0.3,0.3-0.5c0,0,0.1-0.1,0.1-0.1c0.1-0.1,0.3-0.1,0.5-0.1H17c0,0,0.1,0,0.1,0c0.2,0,0.3,0.1,0.5,0.3
	c0,0,0.1,0.1,0.1,0.1C17.7,14.2,17.8,14.4,17.8,14.5L17.8,14.5z"/>
</svg>
